<?xml version="1.0" standalone="no"?>
<!DOCTYPE svg PUBLIC "-//W3C//DTD SVG 20010904//EN"
 "http://www.w3.org/TR/2001/REC-SVG-20010904/DTD/svg10.dtd">
<svg version="1.0" xmlns="http://www.w3.org/2000/svg"
 width="700.000000pt" height="700.000000pt" viewBox="0 0 700.000000 700.000000"
 preserveAspectRatio="xMidYMid meet">
<metadata>
Created by potrace 1.14, written by Peter Selinger 2001-2017
</metadata>
<g transform="translate(0.000000,700.000000) scale(0.100000,-0.100000)"
fill="#000000" stroke="none">
<path d="M1144 6320 c-181 -47 -332 -171 -419 -342 -70 -141 -66 40 -63 -2508
l3 -2295 22 -65 c68 -199 232 -361 428 -423 l70 -22 2315 0 2315 0 70 22 c199
63 365 229 428 428 l22 70 0 1197 0 1196 -30 44 c-89 125 -271 125 -360 0
l-30 -44 -5 -1162 -5 -1163 -30 -49 c-19 -30 -49 -60 -79 -79 l-49 -30 -2246
0 c-2173 0 -2247 1 -2281 19 -49 26 -79 55 -103 101 l-22 40 0 2245 c0 2173 1
2246 19 2280 26 49 55 79 101 103 l40 22 1815 5 c1667 5 1817 6 1845 22 157
87 151 314 -10 389 -38 18 -109 19 -1865 18 -1750 0 -1828 -1 -1896 -19z"/>
<path d="M6515 5901 c-16 -4 -41 -13 -55 -20 -14 -7 -685 -673 -1492 -1480
l-1468 -1466 -592 592 c-326 325 -606 598 -623 606 -141 69 -315 -36 -315
-190 0 -100 -27 -69 708 -806 460 -460 700 -694 728 -707 53 -26 135 -26 188
0 28 13 536 515 1603 1582 1680 1682 1583 1578 1583 1681 0 86 -69 177 -154
202 -54 16 -65 17 -111 6z"/>
</g>
</svg>
