<?xml version="1.0" standalone="no"?>
<!DOCTYPE svg PUBLIC "-//W3C//DTD SVG 20010904//EN"
 "http://www.w3.org/TR/2001/REC-SVG-20010904/DTD/svg10.dtd">
<svg version="1.0" xmlns="http://www.w3.org/2000/svg"
 width="700.000000pt" height="700.000000pt" viewBox="0 0 700.000000 700.000000"
 preserveAspectRatio="xMidYMid meet">
<metadata>
Created by potrace 1.14, written by Peter Selinger 2001-2017
</metadata>
<g transform="translate(0.000000,700.000000) scale(0.100000,-0.100000)"
fill="#000000" stroke="none">
<path d="M1236 6337 c-146 -16 -278 -81 -385 -188 -108 -108 -172 -240 -188
-384 -13 -115 -8 -4510 5 -4577 53 -275 292 -496 567 -525 39 -5 1073 -8 2300
-7 2504 1 2288 -6 2454 76 179 89 317 280 347 484 9 60 10 2273 2 2324 -11 62
-49 115 -109 149 -114 65 -260 11 -310 -114 -8 -23 -12 -316 -13 -1175 -1
-943 -4 -1149 -15 -1170 -29 -53 -64 -91 -104 -112 l-42 -22 -2235 -1 c-2146
-1 -2237 -1 -2280 17 -57 23 -106 78 -124 137 -10 38 -13 453 -12 2271 l1
2225 22 40 c27 50 57 79 108 102 38 16 150 17 1835 18 1778 1 1795 1 1840 21
88 40 137 127 127 225 -9 78 -50 135 -127 175 -33 17 -126 18 -1815 18 -979 1
-1811 -2 -1849 -7z"/>
<path d="M6494 5894 c-22 -8 -41 -14 -44 -14 -3 0 -667 -663 -1477 -1472
l-1473 -1473 -593 592 c-325 325 -606 598 -624 607 -74 37 -182 21 -242 -35
-69 -66 -90 -169 -51 -252 29 -61 1369 -1400 1424 -1423 54 -22 128 -20 179 5
62 30 3149 3121 3171 3175 70 171 -97 350 -270 290z"/>
</g>
</svg>
